ply
format ascii 1.0
comment created by ADONIS
element vertex 40
property float x
property float y
property float z
property float theta
property int segment # strand index
property float ra
property float rb
property float ha
property float hb
property int group
property int actual
property float c0
property float c1
property float c2
property float c3
property float c4
element face 0
property list int int vertex_indices
end_header 
-1 1 1 0 0 0.056 0.005 0.005 0.005 1 1 1 1 1 1 1
-1.4200433685800724 1.203086127208807 1.1797765097203572 0 0 0.056 0.005 0.005 0.005 1 1 1 1 1 1 1
-1.9011164132801015 1.3271188555433753 1.2362088405682579 0 0 0.056 0.005 0.005 0.005 1 1 1 1 1 1 1
-2.303510725161365 1.6021913381500026 1.3476267344553308 0 0 0.056 0.005 0.005 0.005 1 1 1 1 1 1 1
-2.772228851291422 1.6432659935162872 1.5167899424045443 0 0 0.056 0.005 0.005 0.005 1 1 1 1 1 1 1
-2.7571904234989892 1.7774824970900949 1.9982042918561929 0 0 0.056 0.005 0.005 0.005 1 1 1 1 1 1 1
-2.8269533987983153 1.610658914691048 2.4643620115530074 0 0 0.056 0.005 0.005 0.005 1 1 1 1 1 1 1
-3.2839737095334067 1.6329052185509205 2.6659495546705685 0 0 0.056 0.005 0.005 0.005 1 1 1 1 1 1 1
-3.209585247877133 1.6365906027358532 3.1603712114735676 0 0 0.056 0.005 0.005 0.005 1 1 1 1 1 1 1
-3.4324233547564647 1.384214209468645 3.530032318764923 0 0 0.056 0.005 0.005 0.005 1 1 1 1 1 1 1
-3.7946157440778725 1.6459153815697194 3.3056906827751376 0 0 0.056 0.005 0.005 0.005 1 1 1 1 1 1 1
-4.134879458259836 1.338483827095384 3.504955441637784 0 0 0.056 0.005 0.005 0.005 1 1 1 1 1 1 1
-3.97118773757463 1.7065359834878544 3.801169267705996 0 0 0.056 0.005 0.005 0.005 1 1 1 1 1 1 1
-4.389150658111437 1.8037538179604329 4.057792902075094 0 0 0.056 0.005 0.005 0.005 1 1 1 1 1 1 1
-4.664756816663596 2.146269597507754 3.8196245033963163 0 0 0.056 0.005 0.005 0.005 1 1 1 1 1 1 1
-5.031504681959228 2.270119445070135 4.136100756154517 0 0 0.056 0.005 0.005 0.005 1 1 1 1 1 1 1
-5.486444592082916 2.09882662754319 4.019103111561426 0 0 0.056 0.005 0.005 0.005 1 1 1 1 1 1 1
-5.744209763204304 2.522329355901801 4.083930232657265 0 0 0.056 0.005 0.005 0.005 1 1 1 1 1 1 1
-5.800548007403146 2.7884400784724335 4.5034669838168355 0 0 0.056 0.005 0.005 0.005 1 1 1 1 1 1 1
-5.679404417252042 3.2651716422482773 4.593195723165719 0 0 0.056 0.005 0.005 0.005 1 1 1 1 1 1 1
-6.104388250911368 3.3145719167296983 4.851939523109567 0 0 0.056 0.005 0.005 0.005 1 1 1 1 1 1 1
-6.064463892926004 3.042971796310634 5.269838338886552 0 0 0.056 0.005 0.005 0.005 1 1 1 1 1 1 1
-6.29710070740304 2.8339884546096017 5.659974309339735 0 0 0.056 0.005 0.005 0.005 1 1 1 1 1 1 1
-6.665390327913658 3.044299213023743 5.395149574242326 0 0 0.056 0.005 0.005 0.005 1 1 1 1 1 1 1
-6.970879342281026 3.366696123173246 5.165504860767559 0 0 0.056 0.005 0.005 0.005 1 1 1 1 1 1 1
-7.459487523117438 3.3391127063131325 5.063029494293204 0 0 0.056 0.005 0.005 0.005 1 1 1 1 1 1 1
-7.8243576517287945 3.1535439656436703 5.350142767642734 0 0 0.056 0.005 0.005 0.005 1 1 1 1 1 1 1
-8.125962114936764 2.7992457504809467 5.533193368585591 0 0 0.056 0.005 0.005 0.005 1 1 1 1 1 1 1
-8.388604537592624 2.499126967402696 5.834768688970218 0 0 0.056 0.005 0.005 0.005 1 1 1 1 1 1 1
-8.365120950826528 2.8387592010308107 6.200963264344264 0 0 0.056 0.005 0.005 0.005 1 1 1 1 1 1 1
-8.5353145924282 3.2217860690539677 5.928337985379285 0 0 0.056 0.005 0.005 0.005 1 1 1 1 1 1 1
-8.98049783817042 3.310535675408434 5.718730292098838 0 0 0.056 0.005 0.005 0.005 1 1 1 1 1 1 1
-9.288540811796123 3.6961463635708216 5.6386433170357 0 0 0.056 0.005 0.005 0.005 1 1 1 1 1 1 1
-9.427996493612786 3.781755016293512 6.111108417744795 0 0 0.056 0.005 0.005 0.005 1 1 1 1 1 1 1
-9.444486874655924 4.153921589219521 6.444605208328396 0 0 0.056 0.005 0.005 0.005 1 1 1 1 1 1 1
-9.676795572657 4.063567862389586 6.878043638651535 0 0 0.056 0.005 0.005 0.005 1 1 1 1 1 1 1
-9.82745340901329 4.5316075101910975 6.96882416756759 0 0 0.056 0.005 0.005 0.005 1 1 1 1 1 1 1
-10.214952607536864 4.557842114981608 7.283714809942166 0 0 0.056 0.005 0.005 0.005 1 1 1 1 1 1 1
-10.557217535934459 4.920357232090587 7.321629301320165 0 0 0.056 0.005 0.005 0.005 1 1 1 1 1 1 1
-10.960736881660754 4.71882136528235 7.537396379472686 0 0 0.056 0.005 0.005 0.005 1 1 1 1 1 1 1
