ply
format ascii 1.0
comment created by ADONIS
element vertex 40
property float x
property float y
property float z
property float theta
property int segment # strand index
property float ra
property float rb
property float ha
property float hb
property int group
property int actual
property float c0
property float c1
property float c2
property float c3
property float c4
element face 0
property list int int vertex_indices
end_header 
-1 1 1 0 0 0.056 0.005 0.005 0.005 1 1 1 1 1 1 1
-0.5283803577147645 -0.5570192268876604 -0.5232825161407979 0 0 0.056 0.005 0.005 0.005 1 1 1 1 1 1 1
-0.9992455689650241 0.7900398307627001 -0.6251589553499786 0 0 0.056 0.005 0.005 0.005 1 1 1 1 1 1 1
-0.1748660024883415 -0.7504676454554462 0.7025178095938136 0 0 0.056 0.005 0.005 0.005 1 1 1 1 1 1 1
-0.8709272107472781 -0.6626997106042836 0.6338946087286315 0 0 0.056 0.005 0.005 0.005 1 1 1 1 1 1 1
0.6890356972034926 0.02784842974335766 -0.09234945543121165 0 0 0.056 0.005 0.005 0.005 1 1 1 1 1 1 1
-0.5799441014359041 0.28870759955133596 -0.6948641094181922 0 0 0.056 0.005 0.005 0.005 1 1 1 1 1 1 1
-0.6262068940836778 -0.8900331401027914 0.030114915515398577 0 0 0.056 0.005 0.005 0.005 1 1 1 1 1 1 1
-0.7168521551854747 0.19555155831661764 0.11572139490525091 0 0 0.056 0.005 0.005 0.005 1 1 1 1 1 1 1
0.5031229782821309 -0.8209325236036471 -0.22089022314848328 0 0 0.056 0.005 0.005 0.005 1 1 1 1 1 1 1
-0.4161154444332198 -0.3457619426380991 -0.27873034135730945 0 0 0.056 0.005 0.005 0.005 1 1 1 1 1 1 1
-0.5097582879908684 -0.3998074939477534 -0.4676070369767764 0 0 0.056 0.005 0.005 0.005 1 1 1 1 1 1 1
-0.2769403060252047 -0.8981132829907634 -0.34094516243162176 0 0 0.056 0.005 0.005 0.005 1 1 1 1 1 1 1
-0.9324744378458707 0.904124228034372 -0.0459041715322277 0 0 0.056 0.005 0.005 0.005 1 1 1 1 1 1 1
0.15363715046544457 0.7358930698714756 -0.9139272811847614 0 0 0.056 0.005 0.005 0.005 1 1 1 1 1 1 1
0.3205222010122728 -0.15430499059991076 -0.9637833954369555 0 0 0.056 0.005 0.005 0.005 1 1 1 1 1 1 1
0.7845341031471262 0.15796457435820943 0.05848168989009195 0 0 0.056 0.005 0.005 0.005 1 1 1 1 1 1 1
0.11052737890092446 -0.9780931218395528 0.8216143644139988 0 0 0.056 0.005 0.005 0.005 1 1 1 1 1 1 1
0.8968276907735151 -0.5104784554049524 0.23822815827907418 0 0 0.056 0.005 0.005 0.005 1 1 1 1 1 1 1
0.6127869097814616 -0.9182959434235931 -0.9954836864770422 0 0 0.056 0.005 0.005 0.005 1 1 1 1 1 1 1
0.3847755974744975 -0.7468839790653317 0.5159988685365404 0 0 0.056 0.005 0.005 0.005 1 1 1 1 1 1 1
0.9201349192484416 0.3890662920276593 0.21414183234395634 0 0 0.056 0.005 0.005 0.005 1 1 1 1 1 1 1
-0.5730971573299846 -0.5402374391868114 -0.8631052229186371 0 0 0.056 0.005 0.005 0.005 1 1 1 1 1 1 1
-0.8626545448467886 0.7384820828204 0.5036293520436439 0 0 0.056 0.005 0.005 0.005 1 1 1 1 1 1 1
0.5094521316895146 -0.23206376746529234 -0.22676970032332444 0 0 0.056 0.005 0.005 0.005 1 1 1 1 1 1 1
-0.4774426775585594 -0.6253405377324066 -0.8294326256793836 0 0 0.056 0.005 0.005 0.005 1 1 1 1 1 1 1
0.3505901044213462 0.09591910335305087 -0.682826885305218 0 0 0.056 0.005 0.005 0.005 1 1 1 1 1 1 1
-0.42968111982806856 -0.714926002565079 0.07883431169907906 0 0 0.056 0.005 0.005 0.005 1 1 1 1 1 1 1
-0.17849171183100654 -0.5661720950194316 0.9071105617409776 0 0 0.056 0.005 0.005 0.005 1 1 1 1 1 1 1
0.7810100622205771 0.4416067910014776 -0.2610251521994935 0 0 0.056 0.005 0.005 0.005 1 1 1 1 1 1 1
0.7010635494015687 -0.03761168259822778 -0.8208575071461184 0 0 0.056 0.005 0.005 0.005 1 1 1 1 1 1 1
0.9277355636352149 -0.20862936347547056 0.5562699789017249 0 0 0.056 0.005 0.005 0.005 1 1 1 1 1 1 1
0.03128838858245353 -0.6006457967484158 0.14407113788109016 0 0 0.056 0.005 0.005 0.005 1 1 1 1 1 1 1
-0.025098224700468963 0.23363308996868537 0.6156193224257764 0 0 0.056 0.005 0.005 0.005 1 1 1 1 1 1 1
-0.7853999573157768 -0.14317336963446325 0.4653016392772409 0 0 0.056 0.005 0.005 0.005 1 1 1 1 1 1 1
-0.7509396213075181 0.8808668449727901 0.7729015879093928 0 0 0.056 0.005 0.005 0.005 1 1 1 1 1 1 1
-0.5285434988681943 0.5592402214261047 -0.335377751921623 0 0 0.056 0.005 0.005 0.005 1 1 1 1 1 1 1
-0.754405664211431 0.5076414291050775 0.8495673212885397 0 0 0.056 0.005 0.005 0.005 1 1 1 1 1 1 1
0.36846486698914305 0.06545864830431047 0.7085639932947223 0 0 0.056 0.005 0.005 0.005 1 1 1 1 1 1 1
-0.27414214714082163 -0.229817578426047 -0.27765523781197077 0 0 0.056 0.005 0.005 0.005 1 1 1 1 1 1 1
